%TF.GenerationSoftware,KiCad,Pcbnew,9.0.4*%
%TF.CreationDate,2025-10-30T00:59:31-05:00*%
%TF.ProjectId,HVS Series Vacuum Sensor,48565320-5365-4726-9965-732056616375,rev?*%
%TF.SameCoordinates,Original*%
%TF.FileFunction,Copper,L1,Top*%
%TF.FilePolarity,Positive*%
%FSLAX46Y46*%
G04 Gerber Fmt 4.6, Leading zero omitted, Abs format (unit mm)*
G04 Created by KiCad (PCBNEW 9.0.4) date 2025-10-30 00:59:31*
%MOMM*%
%LPD*%
G01*
G04 APERTURE LIST*
G04 Aperture macros list*
%AMRotRect*
0 Rectangle, with rotation*
0 The origin of the aperture is its center*
0 $1 length*
0 $2 width*
0 $3 Rotation angle, in degrees counterclockwise*
0 Add horizontal line*
21,1,$1,$2,0,0,$3*%
G04 Aperture macros list end*
%TA.AperFunction,ComponentPad*%
%ADD10C,2.800000*%
%TD*%
%TA.AperFunction,ComponentPad*%
%ADD11R,1.500000X1.500000*%
%TD*%
%TA.AperFunction,ComponentPad*%
%ADD12C,1.600000*%
%TD*%
%TA.AperFunction,SMDPad,CuDef*%
%ADD13R,2.920000X1.270000*%
%TD*%
%TA.AperFunction,SMDPad,CuDef*%
%ADD14R,1.650000X3.430000*%
%TD*%
%TA.AperFunction,SMDPad,CuDef*%
%ADD15R,1.270000X2.920000*%
%TD*%
%TA.AperFunction,SMDPad,CuDef*%
%ADD16R,3.430000X1.650000*%
%TD*%
%TA.AperFunction,SMDPad,CuDef*%
%ADD17R,0.558800X1.473200*%
%TD*%
%TA.AperFunction,ComponentPad*%
%ADD18RotRect,1.300000X1.300000X315.000000*%
%TD*%
%TA.AperFunction,ComponentPad*%
%ADD19C,1.300000*%
%TD*%
%TA.AperFunction,ComponentPad*%
%ADD20C,1.440000*%
%TD*%
%TA.AperFunction,ViaPad*%
%ADD21C,4.000000*%
%TD*%
%TA.AperFunction,ViaPad*%
%ADD22C,0.600000*%
%TD*%
%TA.AperFunction,Conductor*%
%ADD23C,0.250000*%
%TD*%
G04 APERTURE END LIST*
D10*
%TO.P,Vout1,1,1*%
%TO.N,Vout*%
X155000000Y-99000000D03*
%TD*%
%TO.P,GND1,1,1*%
%TO.N,GND*%
X118500000Y-107500000D03*
%TD*%
D11*
%TO.P,SW1,1,C*%
%TO.N,Net-(SW1-C)*%
X138710000Y-79000000D03*
D12*
%TO.P,SW1,2,B*%
%TO.N,Net-(J1-Pin_1)*%
X141250000Y-79000000D03*
%TO.P,SW1,3,A*%
%TO.N,Net-(SW1-A)*%
X136170000Y-79000000D03*
%TD*%
D13*
%TO.P,J3,1,1*%
%TO.N,Net-(SW1-C)*%
X150830000Y-84500000D03*
%TO.P,J3,2,2*%
%TO.N,GND*%
X150830000Y-87500000D03*
D14*
%TO.P,J3,3*%
%TO.N,N/C*%
X157200000Y-80135000D03*
%TO.P,J3,4*%
X157200000Y-91865000D03*
%TD*%
D12*
%TO.P,R12,1*%
%TO.N,Net-(U2--INA)*%
X136000000Y-91310000D03*
%TO.P,R12,2*%
%TO.N,Net-(C8-Pad1)*%
X136000000Y-83690000D03*
%TD*%
%TO.P,R15A1,1*%
%TO.N,Net-(SW1-A)*%
X132250000Y-79000000D03*
%TO.P,R15A1,2*%
%TO.N,Net-(J1-Pin_1)*%
X124630000Y-79000000D03*
%TD*%
%TO.P,R15,1*%
%TO.N,Net-(R15-Pad1)*%
X122000000Y-88310000D03*
%TO.P,R15,2*%
%TO.N,Net-(SW1-A)*%
X122000000Y-80690000D03*
%TD*%
%TO.P,R14,1*%
%TO.N,Net-(J1-Pin_2)*%
X117130000Y-98750000D03*
%TO.P,R14,2*%
%TO.N,Net-(U2-+INA)*%
X124750000Y-98750000D03*
%TD*%
D15*
%TO.P,J2,1,1*%
%TO.N,+2V*%
X144250000Y-104000000D03*
%TO.P,J2,2,2*%
%TO.N,GND*%
X141250000Y-104000000D03*
%TO.P,J2,3,3*%
%TO.N,Vout*%
X138250000Y-104000000D03*
D16*
%TO.P,J2,4*%
%TO.N,N/C*%
X148615000Y-110370000D03*
%TO.P,J2,5*%
X133885000Y-110370000D03*
%TD*%
D17*
%TO.P,U2,1,OUTA*%
%TO.N,Net-(SW1-C)*%
X129939800Y-98806200D03*
%TO.P,U2,2,V-*%
%TO.N,GND*%
X129000000Y-98806200D03*
%TO.P,U2,3,+INA*%
%TO.N,Net-(U2-+INA)*%
X128060200Y-98806200D03*
%TO.P,U2,4,-INA*%
%TO.N,Net-(U2--INA)*%
X128060200Y-101193800D03*
%TO.P,U2,5,V+*%
%TO.N,+2V*%
X129939800Y-101193800D03*
%TD*%
D12*
%TO.P,R13,1*%
%TO.N,Net-(R13-Pad1)*%
X134880000Y-94500000D03*
%TO.P,R13,2*%
%TO.N,Net-(U2--INA)*%
X142500000Y-94500000D03*
%TD*%
%TO.P,C8,1*%
%TO.N,Net-(C8-Pad1)*%
X135750000Y-98750000D03*
%TO.P,C8,2*%
%TO.N,Net-(SW1-C)*%
X133250000Y-98750000D03*
%TD*%
D18*
%TO.P,J1,1,Pin_1*%
%TO.N,Net-(J1-Pin_1)*%
X116795584Y-87204416D03*
D19*
%TO.P,J1,2,Pin_2*%
%TO.N,Net-(J1-Pin_2)*%
X114250000Y-84658832D03*
%TO.P,J1,3,Pin_3*%
%TO.N,GND*%
X111704416Y-87204416D03*
%TD*%
D10*
%TO.P,POWERB1,1,1*%
%TO.N,+2V*%
X125750000Y-107500000D03*
%TD*%
D12*
%TO.P,R5,1*%
%TO.N,Net-(J1-Pin_1)*%
X125190000Y-84000000D03*
%TO.P,R5,2*%
%TO.N,Net-(SW1-C)*%
X132810000Y-84000000D03*
%TD*%
D20*
%TO.P,RV29,1,1*%
%TO.N,Net-(R15-Pad1)*%
X128995000Y-88460000D03*
%TO.P,RV29,2,2*%
%TO.N,Net-(R13-Pad1)*%
X128995000Y-91000000D03*
%TO.P,RV29,3,3*%
%TO.N,Net-(R16-Pad2)*%
X128995000Y-93540000D03*
%TD*%
D12*
%TO.P,R16,1*%
%TO.N,GND*%
X117130000Y-94500000D03*
%TO.P,R16,2*%
%TO.N,Net-(R16-Pad2)*%
X124750000Y-94500000D03*
%TD*%
D21*
%TO.N,*%
X112250000Y-75000000D03*
X155500000Y-108500000D03*
X112250000Y-108500000D03*
X155500000Y-75000000D03*
D22*
%TO.N,GND*%
X148750000Y-87500000D03*
X141250000Y-101250000D03*
X129000000Y-97250000D03*
%TD*%
D23*
%TO.N,Net-(C8-Pad1)*%
X138190000Y-83690000D02*
X136000000Y-83690000D01*
X144750000Y-90250000D02*
X138190000Y-83690000D01*
X135750000Y-98750000D02*
X142250000Y-98750000D01*
X144750000Y-96250000D02*
X144750000Y-90250000D01*
X142250000Y-98750000D02*
X144750000Y-96250000D01*
%TO.N,GND*%
X141250000Y-104000000D02*
X141250000Y-101250000D01*
X129000000Y-98806200D02*
X129000000Y-97250000D01*
X150830000Y-87500000D02*
X148750000Y-87500000D01*
%TO.N,Net-(J1-Pin_2)*%
X114250000Y-87250000D02*
X114250000Y-84658832D01*
X115500000Y-88500000D02*
X114250000Y-87250000D01*
X115500000Y-97120000D02*
X115500000Y-88500000D01*
X117130000Y-98750000D02*
X115500000Y-97120000D01*
%TO.N,Net-(J1-Pin_1)*%
X120000000Y-84000000D02*
X125190000Y-84000000D01*
X124630000Y-79000000D02*
X124630000Y-82250000D01*
X116795584Y-87204416D02*
X120000000Y-84000000D01*
X139000000Y-81250000D02*
X141250000Y-79000000D01*
X124630000Y-82250000D02*
X124630000Y-82120000D01*
X124630000Y-82120000D02*
X125500000Y-81250000D01*
X124630000Y-82250000D02*
X124630000Y-83440000D01*
X125500000Y-81250000D02*
X139000000Y-81250000D01*
X124630000Y-83440000D02*
X125190000Y-84000000D01*
%TO.N,Net-(U2--INA)*%
X132500000Y-96750000D02*
X136000000Y-96750000D01*
X128060200Y-101193800D02*
X129378000Y-99876000D01*
X130538000Y-99876000D02*
X131500000Y-98914000D01*
X131500000Y-98914000D02*
X131500000Y-97750000D01*
X137500000Y-92810000D02*
X136000000Y-91310000D01*
X131500000Y-97750000D02*
X132500000Y-96750000D01*
X129378000Y-99876000D02*
X130538000Y-99876000D01*
X142500000Y-94500000D02*
X138250000Y-94500000D01*
X137500000Y-95250000D02*
X137500000Y-92810000D01*
X138250000Y-94500000D02*
X137500000Y-95250000D01*
X136000000Y-96750000D02*
X137500000Y-95250000D01*
%TO.N,Net-(R13-Pad1)*%
X131380000Y-91000000D02*
X128995000Y-91000000D01*
X134880000Y-94500000D02*
X131380000Y-91000000D01*
%TO.N,Net-(U2-+INA)*%
X128060200Y-98806200D02*
X128060200Y-97810200D01*
X128060200Y-97810200D02*
X127500000Y-97250000D01*
X126250000Y-97250000D02*
X124750000Y-98750000D01*
X127500000Y-97250000D02*
X126250000Y-97250000D01*
%TO.N,Net-(R15-Pad1)*%
X128845000Y-88310000D02*
X128995000Y-88460000D01*
X122000000Y-88310000D02*
X128845000Y-88310000D01*
%TO.N,Net-(SW1-A)*%
X122000000Y-80690000D02*
X122000000Y-78250000D01*
X122000000Y-78250000D02*
X123000000Y-77250000D01*
X123000000Y-77250000D02*
X132000000Y-77250000D01*
X132000000Y-77250000D02*
X132250000Y-77500000D01*
X132250000Y-77500000D02*
X132250000Y-79000000D01*
X132250000Y-79000000D02*
X136170000Y-79000000D01*
%TO.N,Net-(R16-Pad2)*%
X124750000Y-94500000D02*
X128035000Y-94500000D01*
X128035000Y-94500000D02*
X128995000Y-93540000D01*
%TO.N,Vout*%
X153600001Y-100399999D02*
X155000000Y-99000000D01*
X141025001Y-100399999D02*
X153600001Y-100399999D01*
X138250000Y-103175000D02*
X141025001Y-100399999D01*
X138250000Y-104000000D02*
X138250000Y-103175000D01*
%TO.N,Net-(SW1-C)*%
X145750000Y-80000000D02*
X145750000Y-77500000D01*
X136500000Y-93250000D02*
X136000000Y-92750000D01*
X134810000Y-82000000D02*
X143750000Y-82000000D01*
X132810000Y-87000000D02*
X132810000Y-85750000D01*
X132810000Y-91560000D02*
X132810000Y-87000000D01*
X138710000Y-77790000D02*
X138710000Y-79000000D01*
X134750000Y-97250000D02*
X143000000Y-97250000D01*
X135750000Y-96000000D02*
X136500000Y-95250000D01*
X143000000Y-97250000D02*
X144250000Y-96000000D01*
X129939800Y-98806200D02*
X129939800Y-98560200D01*
X145750000Y-77500000D02*
X145500000Y-77250000D01*
X134060000Y-87000000D02*
X132810000Y-85750000D01*
X150250000Y-84500000D02*
X145750000Y-80000000D01*
X133250000Y-98750000D02*
X134750000Y-97250000D01*
X140750000Y-87000000D02*
X134060000Y-87000000D01*
X144250000Y-96000000D02*
X144250000Y-90500000D01*
X150830000Y-84500000D02*
X150250000Y-84500000D01*
X144250000Y-90500000D02*
X140750000Y-87000000D01*
X145500000Y-77250000D02*
X139250000Y-77250000D01*
X132810000Y-84000000D02*
X134810000Y-82000000D01*
X136500000Y-95250000D02*
X136500000Y-93250000D01*
X143750000Y-82000000D02*
X145750000Y-80000000D01*
X139250000Y-77250000D02*
X138710000Y-77790000D01*
X134000000Y-92750000D02*
X132810000Y-91560000D01*
X132810000Y-85750000D02*
X132810000Y-84000000D01*
X132500000Y-96000000D02*
X135750000Y-96000000D01*
X129939800Y-98560200D02*
X132500000Y-96000000D01*
X136000000Y-92750000D02*
X134000000Y-92750000D01*
%TO.N,+2V*%
X129939800Y-103439800D02*
X129939800Y-101193800D01*
X129810200Y-103439800D02*
X125750000Y-107500000D01*
X144250000Y-104000000D02*
X141500000Y-106750000D01*
X133250000Y-106750000D02*
X129939800Y-103439800D01*
X141500000Y-106750000D02*
X133250000Y-106750000D01*
X129939800Y-103439800D02*
X129810200Y-103439800D01*
%TD*%
M02*
