%TF.GenerationSoftware,KiCad,Pcbnew,9.0.4*%
%TF.CreationDate,2025-10-30T00:59:31-05:00*%
%TF.ProjectId,HVS Series Vacuum Sensor,48565320-5365-4726-9965-732056616375,rev?*%
%TF.SameCoordinates,Original*%
%TF.FileFunction,Soldermask,Top*%
%TF.FilePolarity,Negative*%
%FSLAX46Y46*%
G04 Gerber Fmt 4.6, Leading zero omitted, Abs format (unit mm)*
G04 Created by KiCad (PCBNEW 9.0.4) date 2025-10-30 00:59:31*
%MOMM*%
%LPD*%
G01*
G04 APERTURE LIST*
G04 Aperture macros list*
%AMRoundRect*
0 Rectangle with rounded corners*
0 $1 Rounding radius*
0 $2 $3 $4 $5 $6 $7 $8 $9 X,Y pos of 4 corners*
0 Add a 4 corners polygon primitive as box body*
4,1,4,$2,$3,$4,$5,$6,$7,$8,$9,$2,$3,0*
0 Add four circle primitives for the rounded corners*
1,1,$1+$1,$2,$3*
1,1,$1+$1,$4,$5*
1,1,$1+$1,$6,$7*
1,1,$1+$1,$8,$9*
0 Add four rect primitives between the rounded corners*
20,1,$1+$1,$2,$3,$4,$5,0*
20,1,$1+$1,$4,$5,$6,$7,0*
20,1,$1+$1,$6,$7,$8,$9,0*
20,1,$1+$1,$8,$9,$2,$3,0*%
%AMRotRect*
0 Rectangle, with rotation*
0 The origin of the aperture is its center*
0 $1 length*
0 $2 width*
0 $3 Rotation angle, in degrees counterclockwise*
0 Add horizontal line*
21,1,$1,$2,0,0,$3*%
G04 Aperture macros list end*
%ADD10C,2.800000*%
%ADD11R,1.500000X1.500000*%
%ADD12C,1.600000*%
%ADD13C,1.550000*%
%ADD14R,2.920000X1.270000*%
%ADD15R,1.650000X3.430000*%
%ADD16R,1.270000X2.920000*%
%ADD17R,3.430000X1.650000*%
%ADD18RoundRect,0.102000X-0.279400X0.736600X-0.279400X-0.736600X0.279400X-0.736600X0.279400X0.736600X0*%
%ADD19C,0.500000*%
%ADD20RotRect,1.300000X1.300000X315.000000*%
%ADD21C,1.300000*%
%ADD22C,1.440000*%
%ADD23C,4.000000*%
%ADD24C,0.600000*%
G04 APERTURE END LIST*
D10*
%TO.C,Vout1*%
X155000000Y-99000000D03*
%TD*%
%TO.C,GND1*%
X118500000Y-107500000D03*
%TD*%
D11*
%TO.C,SW1*%
X138710000Y-79000000D03*
D12*
X141250000Y-79000000D03*
X136170000Y-79000000D03*
%TD*%
D13*
%TO.C,J3*%
X155750000Y-86000000D03*
D14*
X150830000Y-84500000D03*
X150830000Y-87500000D03*
D15*
X157200000Y-80135000D03*
X157200000Y-91865000D03*
%TD*%
D12*
%TO.C,R12*%
X136000000Y-91310000D03*
X136000000Y-83690000D03*
%TD*%
%TO.C,R15A1*%
X132250000Y-79000000D03*
X124630000Y-79000000D03*
%TD*%
%TO.C,R15*%
X122000000Y-88310000D03*
X122000000Y-80690000D03*
%TD*%
%TO.C,R14*%
X117130000Y-98750000D03*
X124750000Y-98750000D03*
%TD*%
D13*
%TO.C,J2*%
X141250000Y-108920000D03*
D16*
X144250000Y-104000000D03*
X141250000Y-104000000D03*
X138250000Y-104000000D03*
D17*
X148615000Y-110370000D03*
X133885000Y-110370000D03*
%TD*%
D18*
%TO.C,U2*%
X129939800Y-98806200D03*
X129000000Y-98806200D03*
X128060200Y-98806200D03*
X128060200Y-101193800D03*
X129939800Y-101193800D03*
%TD*%
D12*
%TO.C,R13*%
X134880000Y-94500000D03*
X142500000Y-94500000D03*
%TD*%
%TO.C,C8*%
X135750000Y-98750000D03*
X133250000Y-98750000D03*
%TD*%
D19*
%TO.C,J1*%
X114250000Y-89750000D03*
D20*
X116795584Y-87204416D03*
D21*
X114250000Y-84658832D03*
X111704416Y-87204416D03*
%TD*%
D10*
%TO.C,POWERB1*%
X125750000Y-107500000D03*
%TD*%
D12*
%TO.C,R5*%
X125190000Y-84000000D03*
X132810000Y-84000000D03*
%TD*%
D22*
%TO.C,RV29*%
X128995000Y-88460000D03*
X128995000Y-91000000D03*
X128995000Y-93540000D03*
%TD*%
D12*
%TO.C,R16*%
X117130000Y-94500000D03*
X124750000Y-94500000D03*
%TD*%
D23*
X112250000Y-75000000D03*
X155500000Y-108500000D03*
X112250000Y-108500000D03*
X155500000Y-75000000D03*
D24*
X148750000Y-87500000D03*
X141250000Y-101250000D03*
X129000000Y-97250000D03*
M02*
